<mxfile host="app.diagrams.net" modified="2021-04-15T22:30:42.885Z" agent="5.0 (Macintosh; Intel Mac OS X 10_15_7) AppleWebKit/609.4.1 (KHTML, like Gecko) Version/14.0.3 Safari/609.4.1" etag="5-6KsUfkkbjYBQKkVUNi" version="14.5.10" type="github">
  <diagram id="C5RBs43oDa-KdzZeNtuy" name="Page-1">
    <mxGraphModel dx="1272" dy="745" grid="1" gridSize="10" guides="1" tooltips="1" connect="1" arrows="1" fold="1" page="1" pageScale="1" pageWidth="3300" pageHeight="4681" math="0" shadow="0">
      <root>
        <mxCell id="WIyWlLk6GJQsqaUBKTNV-0" />
        <mxCell id="WIyWlLk6GJQsqaUBKTNV-1" parent="WIyWlLk6GJQsqaUBKTNV-0" />
        <mxCell id="1VNbHM8MTjkIttizysfg-0" value="&lt;h1 style=&quot;font-size: 22px&quot;&gt;&lt;font style=&quot;font-size: 22px&quot;&gt;Relações&lt;/font&gt;&lt;/h1&gt;&lt;div&gt;&lt;font style=&quot;font-size: 22px&quot;&gt;1. Airport - esquema de relação&lt;/font&gt;&lt;/div&gt;&lt;div&gt;&lt;font style=&quot;font-size: 22px&quot;&gt;&amp;nbsp;&amp;nbsp;&amp;nbsp; AIRPORT(&lt;u&gt;Airport_code&lt;/u&gt;, City, State, Name)&lt;/font&gt;&lt;font style=&quot;font-size: 22px&quot;&gt;&lt;br&gt;&lt;/font&gt;&lt;/div&gt;&lt;div&gt;&lt;font style=&quot;font-size: 22px&quot;&gt;2. Can_Land - esquema de relação&amp;nbsp;&amp;nbsp;&amp;nbsp;&amp;nbsp;&amp;nbsp; &lt;br&gt;&lt;/font&gt;&lt;/div&gt;&lt;div&gt;&lt;font style=&quot;font-size: 22px&quot;&gt;&amp;nbsp;&amp;nbsp;&amp;nbsp; CAN_LAND(&lt;u&gt;Airport&lt;/u&gt;, &lt;u&gt;Airplane_type&lt;/u&gt;)&lt;/font&gt;&lt;font style=&quot;font-size: 22px&quot;&gt;&lt;br&gt;&lt;/font&gt;&lt;/div&gt;&lt;div&gt;&lt;font style=&quot;font-size: 22px&quot;&gt;3. Airplane_Type - esquema de relação&lt;/font&gt;&lt;/div&gt;&lt;div&gt;&lt;font style=&quot;font-size: 22px&quot;&gt;&amp;nbsp;&amp;nbsp;&amp;nbsp; AIRPLANE_TYPE(&lt;u&gt;Type_name&lt;/u&gt;, Max_seats, Company)&lt;/font&gt;&lt;font style=&quot;font-size: 22px&quot;&gt;&lt;br&gt;&lt;/font&gt;&lt;/div&gt;&lt;div&gt;&lt;font style=&quot;font-size: 22px&quot;&gt;4. Airplane- esquema de relação &lt;br&gt;&lt;/font&gt;&lt;/div&gt;&lt;div&gt;&lt;font style=&quot;font-size: 22px&quot;&gt;&amp;nbsp;&amp;nbsp;&amp;nbsp; AIRPLANE(&lt;u&gt;Airplane_id&lt;/u&gt;, Total_no_of_seats, Type)&lt;/font&gt;&lt;font style=&quot;font-size: 22px&quot;&gt;&lt;br&gt;&lt;/font&gt;&lt;/div&gt;&lt;div&gt;&lt;font style=&quot;font-size: 22px&quot;&gt;5. Leg_Instance - esquema de relação &lt;br&gt;&lt;/font&gt;&lt;/div&gt;&lt;div&gt;&lt;font style=&quot;font-size: 22px&quot;&gt;&amp;nbsp;&amp;nbsp;&amp;nbsp; LEG_INSTANCE(No_of_avai_seats, &lt;u&gt;Date&lt;/u&gt;, &lt;u&gt;Flight_legs&lt;/u&gt;,&lt;/font&gt;&lt;font style=&quot;font-size: 22px&quot;&gt; Flight_legs, &lt;u&gt;Flight_leg_no&lt;/u&gt;, Assigned_airplane, Dep_airport_code, Dep_time, Arr_airport_code, Arr_time, Airplane_id)&lt;/font&gt;&lt;/div&gt;&lt;div&gt;&lt;font style=&quot;font-size: 22px&quot;&gt;6. &lt;/font&gt;&lt;font style=&quot;font-size: 22px&quot;&gt;Seat - esquema de relação &lt;br&gt;&lt;/font&gt;&lt;/div&gt;&lt;div&gt;&lt;font style=&quot;font-size: 22px&quot;&gt;&amp;nbsp;&amp;nbsp;&amp;nbsp; SEAT(&lt;u&gt;Leg_date&lt;/u&gt;, &lt;u&gt;Flight_legs&lt;/u&gt;, &lt;u&gt;Flight_leg_no&lt;/u&gt;, &lt;u&gt;Seat_no&lt;/u&gt;, Customer_name, Cphone) &lt;br&gt;&lt;/font&gt;&lt;/div&gt;&lt;div&gt;&lt;font style=&quot;font-size: 22px&quot;&gt;7. &lt;/font&gt;&lt;font style=&quot;font-size: 22px&quot;&gt;Flight - esquema de relação &lt;br&gt;&lt;/font&gt;&lt;/div&gt;&lt;div&gt;&lt;font style=&quot;font-size: 22px&quot;&gt;&amp;nbsp;&amp;nbsp;&amp;nbsp; FLIGHT(&lt;u&gt;Number&lt;/u&gt;, Airline, Weekdays)&lt;/font&gt;&lt;font style=&quot;font-size: 22px&quot;&gt;&lt;br&gt;&lt;/font&gt;&lt;/div&gt;&lt;div&gt;&lt;font style=&quot;font-size: 22px&quot;&gt;8. Flight_leg - esquema de relação &lt;br&gt;&lt;/font&gt;&lt;/div&gt;&lt;div&gt;&lt;font style=&quot;font-size: 22px&quot;&gt;&amp;nbsp;&amp;nbsp;&amp;nbsp; FLIGHT_LEG(&lt;u&gt;Flight_number&lt;/u&gt;, Flight_legs, &lt;u&gt;Leg_no&lt;/u&gt;, Dep_airport_code, Scheduled_dep_time, Arr_airport_code, Scheduled_arr_time, Arr_Airport)&lt;/font&gt;&lt;font style=&quot;font-size: 22px&quot;&gt;&lt;br&gt;&lt;/font&gt;&lt;/div&gt;&lt;div&gt;&lt;font style=&quot;font-size: 22px&quot;&gt;9. Fare - esquema de relação &lt;br&gt;&lt;/font&gt;&lt;/div&gt;&lt;div&gt;&lt;font style=&quot;font-size: 22px&quot;&gt;&amp;nbsp;&amp;nbsp;&amp;nbsp; FARE(&lt;u&gt;Flight_fare_number&lt;/u&gt;, Restrictions, Amount, &lt;u&gt;Code&lt;/u&gt;)&lt;/font&gt;&lt;/div&gt;&lt;br&gt;&lt;br&gt;&lt;br&gt;" style="text;html=1;strokeColor=none;fillColor=none;spacing=5;spacingTop=-20;whiteSpace=wrap;overflow=hidden;rounded=0;" parent="WIyWlLk6GJQsqaUBKTNV-1" vertex="1">
          <mxGeometry x="1270" y="1920" width="1010" height="620" as="geometry" />
        </mxCell>
        <mxCell id="1VNbHM8MTjkIttizysfg-1" value="" style="shape=table;html=1;whiteSpace=wrap;startSize=0;container=1;collapsible=0;childLayout=tableLayout;" parent="WIyWlLk6GJQsqaUBKTNV-1" vertex="1">
          <mxGeometry x="1280" y="2570" width="560" height="545" as="geometry" />
        </mxCell>
        <mxCell id="1VNbHM8MTjkIttizysfg-2" value="" style="shape=partialRectangle;html=1;whiteSpace=wrap;collapsible=0;dropTarget=0;pointerEvents=0;fillColor=none;top=0;left=0;bottom=0;right=0;points=[[0,0.5],[1,0.5]];portConstraint=eastwest;" parent="1VNbHM8MTjkIttizysfg-1" vertex="1">
          <mxGeometry width="560" height="54" as="geometry" />
        </mxCell>
        <mxCell id="1VNbHM8MTjkIttizysfg-3" value="Relação" style="shape=partialRectangle;html=1;whiteSpace=wrap;connectable=0;overflow=hidden;fillColor=#f5f5f5;top=0;left=0;bottom=0;right=0;strokeColor=#666666;fontColor=#333333;" parent="1VNbHM8MTjkIttizysfg-2" vertex="1">
          <mxGeometry width="140" height="54" as="geometry" />
        </mxCell>
        <mxCell id="1VNbHM8MTjkIttizysfg-4" value="Chaves Cadidatas" style="shape=partialRectangle;html=1;whiteSpace=wrap;connectable=0;overflow=hidden;fillColor=#f5f5f5;top=0;left=0;bottom=0;right=0;strokeColor=#666666;fontColor=#333333;" parent="1VNbHM8MTjkIttizysfg-2" vertex="1">
          <mxGeometry x="140" width="140" height="54" as="geometry" />
        </mxCell>
        <mxCell id="1VNbHM8MTjkIttizysfg-5" value="Chave Primária" style="shape=partialRectangle;html=1;whiteSpace=wrap;connectable=0;overflow=hidden;fillColor=#f5f5f5;top=0;left=0;bottom=0;right=0;strokeColor=#666666;fontColor=#333333;" parent="1VNbHM8MTjkIttizysfg-2" vertex="1">
          <mxGeometry x="280" width="140" height="54" as="geometry" />
        </mxCell>
        <mxCell id="1VNbHM8MTjkIttizysfg-6" value="Chaves Estrangeiras" style="shape=partialRectangle;html=1;whiteSpace=wrap;connectable=0;overflow=hidden;fillColor=#f5f5f5;top=0;left=0;bottom=0;right=0;strokeColor=#666666;fontColor=#333333;" parent="1VNbHM8MTjkIttizysfg-2" vertex="1">
          <mxGeometry x="420" width="140" height="54" as="geometry" />
        </mxCell>
        <mxCell id="1VNbHM8MTjkIttizysfg-7" value="" style="shape=partialRectangle;html=1;whiteSpace=wrap;collapsible=0;dropTarget=0;pointerEvents=0;fillColor=none;top=0;left=0;bottom=0;right=0;points=[[0,0.5],[1,0.5]];portConstraint=eastwest;" parent="1VNbHM8MTjkIttizysfg-1" vertex="1">
          <mxGeometry y="54" width="560" height="52" as="geometry" />
        </mxCell>
        <mxCell id="1VNbHM8MTjkIttizysfg-8" value="Airport" style="shape=partialRectangle;html=1;whiteSpace=wrap;connectable=0;overflow=hidden;fillColor=#f5f5f5;top=0;left=0;bottom=0;right=0;strokeColor=#666666;fontColor=#333333;" parent="1VNbHM8MTjkIttizysfg-7" vertex="1">
          <mxGeometry width="140" height="52" as="geometry" />
        </mxCell>
        <mxCell id="1VNbHM8MTjkIttizysfg-9" value="Airport_code, Name" style="shape=partialRectangle;html=1;whiteSpace=wrap;connectable=0;overflow=hidden;fillColor=none;top=0;left=0;bottom=0;right=0;" parent="1VNbHM8MTjkIttizysfg-7" vertex="1">
          <mxGeometry x="140" width="140" height="52" as="geometry" />
        </mxCell>
        <mxCell id="1VNbHM8MTjkIttizysfg-10" value="Airport_code" style="shape=partialRectangle;html=1;whiteSpace=wrap;connectable=0;overflow=hidden;fillColor=none;top=0;left=0;bottom=0;right=0;" parent="1VNbHM8MTjkIttizysfg-7" vertex="1">
          <mxGeometry x="280" width="140" height="52" as="geometry" />
        </mxCell>
        <mxCell id="1VNbHM8MTjkIttizysfg-11" value="-" style="shape=partialRectangle;html=1;whiteSpace=wrap;connectable=0;overflow=hidden;fillColor=none;top=0;left=0;bottom=0;right=0;" parent="1VNbHM8MTjkIttizysfg-7" vertex="1">
          <mxGeometry x="420" width="140" height="52" as="geometry" />
        </mxCell>
        <mxCell id="1VNbHM8MTjkIttizysfg-12" value="" style="shape=partialRectangle;html=1;whiteSpace=wrap;collapsible=0;dropTarget=0;pointerEvents=0;fillColor=none;top=0;left=0;bottom=0;right=0;points=[[0,0.5],[1,0.5]];portConstraint=eastwest;" parent="1VNbHM8MTjkIttizysfg-1" vertex="1">
          <mxGeometry y="106" width="560" height="55" as="geometry" />
        </mxCell>
        <mxCell id="1VNbHM8MTjkIttizysfg-13" value="Can_Land" style="shape=partialRectangle;html=1;whiteSpace=wrap;connectable=0;overflow=hidden;fillColor=#f5f5f5;top=0;left=0;bottom=0;right=0;strokeColor=#666666;fontColor=#333333;" parent="1VNbHM8MTjkIttizysfg-12" vertex="1">
          <mxGeometry width="140" height="55" as="geometry" />
        </mxCell>
        <mxCell id="1VNbHM8MTjkIttizysfg-14" value="Airport, Airplane_Type" style="shape=partialRectangle;html=1;whiteSpace=wrap;connectable=0;overflow=hidden;fillColor=none;top=0;left=0;bottom=0;right=0;" parent="1VNbHM8MTjkIttizysfg-12" vertex="1">
          <mxGeometry x="140" width="140" height="55" as="geometry" />
        </mxCell>
        <mxCell id="1VNbHM8MTjkIttizysfg-15" value="&lt;span&gt;Airport, Airplane_Type&lt;/span&gt;" style="shape=partialRectangle;html=1;whiteSpace=wrap;connectable=0;overflow=hidden;fillColor=none;top=0;left=0;bottom=0;right=0;" parent="1VNbHM8MTjkIttizysfg-12" vertex="1">
          <mxGeometry x="280" width="140" height="55" as="geometry" />
        </mxCell>
        <mxCell id="1VNbHM8MTjkIttizysfg-16" value="&lt;span style=&quot;color: rgb(0 , 0 , 0) ; font-family: &amp;#34;helvetica&amp;#34; ; font-size: 12px ; font-style: normal ; font-weight: 400 ; letter-spacing: normal ; text-align: center ; text-indent: 0px ; text-transform: none ; word-spacing: 0px ; background-color: rgb(248 , 249 , 250) ; display: inline ; float: none&quot;&gt;Airport, Airplane_Type&lt;/span&gt;" style="shape=partialRectangle;html=1;whiteSpace=wrap;connectable=0;overflow=hidden;fillColor=none;top=0;left=0;bottom=0;right=0;" parent="1VNbHM8MTjkIttizysfg-12" vertex="1">
          <mxGeometry x="420" width="140" height="55" as="geometry" />
        </mxCell>
        <mxCell id="1VNbHM8MTjkIttizysfg-17" value="" style="shape=partialRectangle;html=1;whiteSpace=wrap;collapsible=0;dropTarget=0;pointerEvents=0;fillColor=none;top=0;left=0;bottom=0;right=0;points=[[0,0.5],[1,0.5]];portConstraint=eastwest;" parent="1VNbHM8MTjkIttizysfg-1" vertex="1">
          <mxGeometry y="161" width="560" height="52" as="geometry" />
        </mxCell>
        <mxCell id="1VNbHM8MTjkIttizysfg-18" value="Airplane_Type" style="shape=partialRectangle;html=1;whiteSpace=wrap;connectable=0;overflow=hidden;fillColor=#f5f5f5;top=0;left=0;bottom=0;right=0;strokeColor=#666666;fontColor=#333333;" parent="1VNbHM8MTjkIttizysfg-17" vertex="1">
          <mxGeometry width="140" height="52" as="geometry" />
        </mxCell>
        <mxCell id="1VNbHM8MTjkIttizysfg-19" value="Type_name" style="shape=partialRectangle;html=1;whiteSpace=wrap;connectable=0;overflow=hidden;fillColor=none;top=0;left=0;bottom=0;right=0;" parent="1VNbHM8MTjkIttizysfg-17" vertex="1">
          <mxGeometry x="140" width="140" height="52" as="geometry" />
        </mxCell>
        <mxCell id="1VNbHM8MTjkIttizysfg-20" value="Type_name" style="shape=partialRectangle;html=1;whiteSpace=wrap;connectable=0;overflow=hidden;fillColor=none;top=0;left=0;bottom=0;right=0;" parent="1VNbHM8MTjkIttizysfg-17" vertex="1">
          <mxGeometry x="280" width="140" height="52" as="geometry" />
        </mxCell>
        <mxCell id="1VNbHM8MTjkIttizysfg-21" value="-" style="shape=partialRectangle;html=1;whiteSpace=wrap;connectable=0;overflow=hidden;fillColor=none;top=0;left=0;bottom=0;right=0;" parent="1VNbHM8MTjkIttizysfg-17" vertex="1">
          <mxGeometry x="420" width="140" height="52" as="geometry" />
        </mxCell>
        <mxCell id="1VNbHM8MTjkIttizysfg-22" value="" style="shape=partialRectangle;html=1;whiteSpace=wrap;collapsible=0;dropTarget=0;pointerEvents=0;fillColor=none;top=0;left=0;bottom=0;right=0;points=[[0,0.5],[1,0.5]];portConstraint=eastwest;" parent="1VNbHM8MTjkIttizysfg-1" vertex="1">
          <mxGeometry y="213" width="560" height="54" as="geometry" />
        </mxCell>
        <mxCell id="1VNbHM8MTjkIttizysfg-23" value="Airplane" style="shape=partialRectangle;html=1;whiteSpace=wrap;connectable=0;overflow=hidden;fillColor=#f5f5f5;top=0;left=0;bottom=0;right=0;strokeColor=#666666;fontColor=#333333;" parent="1VNbHM8MTjkIttizysfg-22" vertex="1">
          <mxGeometry width="140" height="54" as="geometry" />
        </mxCell>
        <mxCell id="1VNbHM8MTjkIttizysfg-24" value="AIrplane_id" style="shape=partialRectangle;html=1;whiteSpace=wrap;connectable=0;overflow=hidden;fillColor=none;top=0;left=0;bottom=0;right=0;" parent="1VNbHM8MTjkIttizysfg-22" vertex="1">
          <mxGeometry x="140" width="140" height="54" as="geometry" />
        </mxCell>
        <mxCell id="1VNbHM8MTjkIttizysfg-25" value="Airplane_id" style="shape=partialRectangle;html=1;whiteSpace=wrap;connectable=0;overflow=hidden;fillColor=none;top=0;left=0;bottom=0;right=0;" parent="1VNbHM8MTjkIttizysfg-22" vertex="1">
          <mxGeometry x="280" width="140" height="54" as="geometry" />
        </mxCell>
        <mxCell id="1VNbHM8MTjkIttizysfg-26" value="Type" style="shape=partialRectangle;html=1;whiteSpace=wrap;connectable=0;overflow=hidden;fillColor=none;top=0;left=0;bottom=0;right=0;" parent="1VNbHM8MTjkIttizysfg-22" vertex="1">
          <mxGeometry x="420" width="140" height="54" as="geometry" />
        </mxCell>
        <mxCell id="1VNbHM8MTjkIttizysfg-27" value="" style="shape=partialRectangle;html=1;whiteSpace=wrap;collapsible=0;dropTarget=0;pointerEvents=0;fillColor=none;top=0;left=0;bottom=0;right=0;points=[[0,0.5],[1,0.5]];portConstraint=eastwest;" parent="1VNbHM8MTjkIttizysfg-1" vertex="1">
          <mxGeometry y="267" width="560" height="63" as="geometry" />
        </mxCell>
        <mxCell id="1VNbHM8MTjkIttizysfg-28" value="Leg_Instance" style="shape=partialRectangle;html=1;whiteSpace=wrap;connectable=0;overflow=hidden;fillColor=#f5f5f5;top=0;left=0;bottom=0;right=0;strokeColor=#666666;fontColor=#333333;" parent="1VNbHM8MTjkIttizysfg-27" vertex="1">
          <mxGeometry width="140" height="63" as="geometry" />
        </mxCell>
        <mxCell id="1VNbHM8MTjkIttizysfg-29" value="Flight_legs, Flight_leg_no, Date" style="shape=partialRectangle;html=1;whiteSpace=wrap;connectable=0;overflow=hidden;fillColor=none;top=0;left=0;bottom=0;right=0;" parent="1VNbHM8MTjkIttizysfg-27" vertex="1">
          <mxGeometry x="140" width="140" height="63" as="geometry" />
        </mxCell>
        <mxCell id="1VNbHM8MTjkIttizysfg-30" value="Flight_legs, Flight_leg_no, Date" style="shape=partialRectangle;html=1;whiteSpace=wrap;connectable=0;overflow=hidden;fillColor=none;top=0;left=0;bottom=0;right=0;" parent="1VNbHM8MTjkIttizysfg-27" vertex="1">
          <mxGeometry x="280" width="140" height="63" as="geometry" />
        </mxCell>
        <mxCell id="1VNbHM8MTjkIttizysfg-31" value="Dep_airport_code, Arr_airport_code, Airplane_id, Flight_legs, Flight_Legs_no" style="shape=partialRectangle;html=1;whiteSpace=wrap;connectable=0;overflow=hidden;fillColor=none;top=0;left=0;bottom=0;right=0;" parent="1VNbHM8MTjkIttizysfg-27" vertex="1">
          <mxGeometry x="420" width="140" height="63" as="geometry" />
        </mxCell>
        <mxCell id="1VNbHM8MTjkIttizysfg-32" value="" style="shape=partialRectangle;html=1;whiteSpace=wrap;collapsible=0;dropTarget=0;pointerEvents=0;fillColor=none;top=0;left=0;bottom=0;right=0;points=[[0,0.5],[1,0.5]];portConstraint=eastwest;" parent="1VNbHM8MTjkIttizysfg-1" vertex="1">
          <mxGeometry y="330" width="560" height="55" as="geometry" />
        </mxCell>
        <mxCell id="1VNbHM8MTjkIttizysfg-33" value="Flight" style="shape=partialRectangle;html=1;whiteSpace=wrap;connectable=0;overflow=hidden;fillColor=#f5f5f5;top=0;left=0;bottom=0;right=0;strokeColor=#666666;fontColor=#333333;" parent="1VNbHM8MTjkIttizysfg-32" vertex="1">
          <mxGeometry width="140" height="55" as="geometry" />
        </mxCell>
        <mxCell id="1VNbHM8MTjkIttizysfg-34" value="Number" style="shape=partialRectangle;html=1;whiteSpace=wrap;connectable=0;overflow=hidden;fillColor=none;top=0;left=0;bottom=0;right=0;" parent="1VNbHM8MTjkIttizysfg-32" vertex="1">
          <mxGeometry x="140" width="140" height="55" as="geometry" />
        </mxCell>
        <mxCell id="1VNbHM8MTjkIttizysfg-35" value="Number" style="shape=partialRectangle;html=1;whiteSpace=wrap;connectable=0;overflow=hidden;fillColor=none;top=0;left=0;bottom=0;right=0;" parent="1VNbHM8MTjkIttizysfg-32" vertex="1">
          <mxGeometry x="280" width="140" height="55" as="geometry" />
        </mxCell>
        <mxCell id="1VNbHM8MTjkIttizysfg-36" value="-" style="shape=partialRectangle;html=1;whiteSpace=wrap;connectable=0;overflow=hidden;fillColor=none;top=0;left=0;bottom=0;right=0;" parent="1VNbHM8MTjkIttizysfg-32" vertex="1">
          <mxGeometry x="420" width="140" height="55" as="geometry" />
        </mxCell>
        <mxCell id="1VNbHM8MTjkIttizysfg-37" value="" style="shape=partialRectangle;html=1;whiteSpace=wrap;collapsible=0;dropTarget=0;pointerEvents=0;fillColor=none;top=0;left=0;bottom=0;right=0;points=[[0,0.5],[1,0.5]];portConstraint=eastwest;" parent="1VNbHM8MTjkIttizysfg-1" vertex="1">
          <mxGeometry y="385" width="560" height="52" as="geometry" />
        </mxCell>
        <mxCell id="1VNbHM8MTjkIttizysfg-38" value="Flight_Leg" style="shape=partialRectangle;html=1;whiteSpace=wrap;connectable=0;overflow=hidden;fillColor=#f5f5f5;top=0;left=0;bottom=0;right=0;strokeColor=#666666;fontColor=#333333;" parent="1VNbHM8MTjkIttizysfg-37" vertex="1">
          <mxGeometry width="140" height="52" as="geometry" />
        </mxCell>
        <mxCell id="1VNbHM8MTjkIttizysfg-39" value="Flight_number, Leg_no" style="shape=partialRectangle;html=1;whiteSpace=wrap;connectable=0;overflow=hidden;fillColor=none;top=0;left=0;bottom=0;right=0;" parent="1VNbHM8MTjkIttizysfg-37" vertex="1">
          <mxGeometry x="140" width="140" height="52" as="geometry" />
        </mxCell>
        <mxCell id="1VNbHM8MTjkIttizysfg-40" value="Flight_number, leg_no" style="shape=partialRectangle;html=1;whiteSpace=wrap;connectable=0;overflow=hidden;fillColor=none;top=0;left=0;bottom=0;right=0;" parent="1VNbHM8MTjkIttizysfg-37" vertex="1">
          <mxGeometry x="280" width="140" height="52" as="geometry" />
        </mxCell>
        <mxCell id="1VNbHM8MTjkIttizysfg-41" value="Flight_number, Arr_airport_code, Dep_airport_code" style="shape=partialRectangle;html=1;whiteSpace=wrap;connectable=0;overflow=hidden;fillColor=none;top=0;left=0;bottom=0;right=0;" parent="1VNbHM8MTjkIttizysfg-37" vertex="1">
          <mxGeometry x="420" width="140" height="52" as="geometry" />
        </mxCell>
        <mxCell id="1VNbHM8MTjkIttizysfg-42" value="" style="shape=partialRectangle;html=1;whiteSpace=wrap;collapsible=0;dropTarget=0;pointerEvents=0;fillColor=none;top=0;left=0;bottom=0;right=0;points=[[0,0.5],[1,0.5]];portConstraint=eastwest;" parent="1VNbHM8MTjkIttizysfg-1" vertex="1">
          <mxGeometry y="437" width="560" height="54" as="geometry" />
        </mxCell>
        <mxCell id="1VNbHM8MTjkIttizysfg-43" value="Fare" style="shape=partialRectangle;html=1;whiteSpace=wrap;connectable=0;overflow=hidden;fillColor=#f5f5f5;top=0;left=0;bottom=0;right=0;strokeColor=#666666;fontColor=#333333;" parent="1VNbHM8MTjkIttizysfg-42" vertex="1">
          <mxGeometry width="140" height="54" as="geometry" />
        </mxCell>
        <mxCell id="1VNbHM8MTjkIttizysfg-44" value="Flight_fares, Code" style="shape=partialRectangle;html=1;whiteSpace=wrap;connectable=0;overflow=hidden;fillColor=none;top=0;left=0;bottom=0;right=0;" parent="1VNbHM8MTjkIttizysfg-42" vertex="1">
          <mxGeometry x="140" width="140" height="54" as="geometry" />
        </mxCell>
        <mxCell id="1VNbHM8MTjkIttizysfg-45" value="Flight_fares, Code" style="shape=partialRectangle;html=1;whiteSpace=wrap;connectable=0;overflow=hidden;fillColor=none;top=0;left=0;bottom=0;right=0;" parent="1VNbHM8MTjkIttizysfg-42" vertex="1">
          <mxGeometry x="280" width="140" height="54" as="geometry" />
        </mxCell>
        <mxCell id="1VNbHM8MTjkIttizysfg-46" value="Flight_fares" style="shape=partialRectangle;html=1;whiteSpace=wrap;connectable=0;overflow=hidden;fillColor=none;top=0;left=0;bottom=0;right=0;" parent="1VNbHM8MTjkIttizysfg-42" vertex="1">
          <mxGeometry x="420" width="140" height="54" as="geometry" />
        </mxCell>
        <mxCell id="fP1zDGgaj0fNd_BTwLa7-24" style="shape=partialRectangle;html=1;whiteSpace=wrap;collapsible=0;dropTarget=0;pointerEvents=0;fillColor=none;top=0;left=0;bottom=0;right=0;points=[[0,0.5],[1,0.5]];portConstraint=eastwest;" parent="1VNbHM8MTjkIttizysfg-1" vertex="1">
          <mxGeometry y="491" width="560" height="54" as="geometry" />
        </mxCell>
        <mxCell id="fP1zDGgaj0fNd_BTwLa7-25" value="Seat" style="shape=partialRectangle;html=1;whiteSpace=wrap;connectable=0;overflow=hidden;fillColor=#f5f5f5;top=0;left=0;bottom=0;right=0;strokeColor=#666666;fontColor=#333333;" parent="fP1zDGgaj0fNd_BTwLa7-24" vertex="1">
          <mxGeometry width="140" height="54" as="geometry" />
        </mxCell>
        <mxCell id="fP1zDGgaj0fNd_BTwLa7-26" value="Flight_Legs, Leg_date, Flight_legs_no, Seat_no" style="shape=partialRectangle;html=1;whiteSpace=wrap;connectable=0;overflow=hidden;fillColor=none;top=0;left=0;bottom=0;right=0;" parent="fP1zDGgaj0fNd_BTwLa7-24" vertex="1">
          <mxGeometry x="140" width="140" height="54" as="geometry" />
        </mxCell>
        <mxCell id="fP1zDGgaj0fNd_BTwLa7-27" value="Flight_Legs, Leg_date, Flight_leg_no, Seat_no" style="shape=partialRectangle;html=1;whiteSpace=wrap;connectable=0;overflow=hidden;fillColor=none;top=0;left=0;bottom=0;right=0;" parent="fP1zDGgaj0fNd_BTwLa7-24" vertex="1">
          <mxGeometry x="280" width="140" height="54" as="geometry" />
        </mxCell>
        <mxCell id="fP1zDGgaj0fNd_BTwLa7-28" value="Flight_Legs, Leg_date, Flight_legs_no" style="shape=partialRectangle;html=1;whiteSpace=wrap;connectable=0;overflow=hidden;fillColor=none;top=0;left=0;bottom=0;right=0;" parent="fP1zDGgaj0fNd_BTwLa7-24" vertex="1">
          <mxGeometry x="420" width="140" height="54" as="geometry" />
        </mxCell>
        <mxCell id="1VNbHM8MTjkIttizysfg-72" value="Airport" style="shape=table;startSize=30;container=1;collapsible=1;childLayout=tableLayout;fixedRows=1;rowLines=0;fontStyle=0;align=center;resizeLast=1;" parent="WIyWlLk6GJQsqaUBKTNV-1" vertex="1">
          <mxGeometry x="1270" y="850" width="400" height="60" as="geometry" />
        </mxCell>
        <mxCell id="1VNbHM8MTjkIttizysfg-73" value="" style="shape=partialRectangle;collapsible=0;dropTarget=0;pointerEvents=0;fillColor=none;top=0;left=0;bottom=1;right=0;points=[[0,0.5],[1,0.5]];portConstraint=eastwest;" parent="1VNbHM8MTjkIttizysfg-72" vertex="1">
          <mxGeometry y="30" width="400" height="30" as="geometry" />
        </mxCell>
        <mxCell id="1VNbHM8MTjkIttizysfg-74" value="Airport_Code" style="shape=partialRectangle;connectable=0;fillColor=none;top=0;left=0;bottom=0;right=0;fontStyle=5;overflow=hidden;" parent="1VNbHM8MTjkIttizysfg-73" vertex="1">
          <mxGeometry width="100" height="30" as="geometry" />
        </mxCell>
        <mxCell id="1VNbHM8MTjkIttizysfg-75" value="City" style="shape=partialRectangle;connectable=0;fillColor=none;top=0;left=0;bottom=0;right=0;fontStyle=1;overflow=hidden;" parent="1VNbHM8MTjkIttizysfg-73" vertex="1">
          <mxGeometry x="100" width="100" height="30" as="geometry" />
        </mxCell>
        <mxCell id="1VNbHM8MTjkIttizysfg-76" value="State" style="shape=partialRectangle;connectable=0;fillColor=none;top=0;left=0;bottom=0;right=0;fontStyle=1;overflow=hidden;" parent="1VNbHM8MTjkIttizysfg-73" vertex="1">
          <mxGeometry x="200" width="100" height="30" as="geometry" />
        </mxCell>
        <mxCell id="1VNbHM8MTjkIttizysfg-77" value="Name" style="shape=partialRectangle;connectable=0;fillColor=none;top=0;left=0;bottom=0;right=0;fontStyle=1;overflow=hidden;" parent="1VNbHM8MTjkIttizysfg-73" vertex="1">
          <mxGeometry x="300" width="100" height="30" as="geometry" />
        </mxCell>
        <mxCell id="1VNbHM8MTjkIttizysfg-78" value="Can_Land" style="shape=table;startSize=30;container=1;collapsible=1;childLayout=tableLayout;fixedRows=1;rowLines=0;fontStyle=0;align=center;resizeLast=1;" parent="WIyWlLk6GJQsqaUBKTNV-1" vertex="1">
          <mxGeometry x="1270" y="970" width="230" height="60" as="geometry" />
        </mxCell>
        <mxCell id="1VNbHM8MTjkIttizysfg-79" value="" style="shape=partialRectangle;collapsible=0;dropTarget=0;pointerEvents=0;fillColor=none;top=0;left=0;bottom=1;right=0;points=[[0,0.5],[1,0.5]];portConstraint=eastwest;" parent="1VNbHM8MTjkIttizysfg-78" vertex="1">
          <mxGeometry y="30" width="230" height="30" as="geometry" />
        </mxCell>
        <mxCell id="1VNbHM8MTjkIttizysfg-80" value="Airport" style="shape=partialRectangle;connectable=0;fillColor=none;top=0;left=0;bottom=0;right=0;fontStyle=5;overflow=hidden;" parent="1VNbHM8MTjkIttizysfg-79" vertex="1">
          <mxGeometry width="100" height="30" as="geometry" />
        </mxCell>
        <mxCell id="1VNbHM8MTjkIttizysfg-81" value="Airplane_Type_name" style="shape=partialRectangle;connectable=0;fillColor=none;top=0;left=0;bottom=0;right=0;fontStyle=5;overflow=hidden;" parent="1VNbHM8MTjkIttizysfg-79" vertex="1">
          <mxGeometry x="100" width="130" height="30" as="geometry" />
        </mxCell>
        <mxCell id="1VNbHM8MTjkIttizysfg-85" value="Airplane" style="shape=table;startSize=30;container=1;collapsible=1;childLayout=tableLayout;fixedRows=1;rowLines=0;fontStyle=0;align=center;resizeLast=1;" parent="WIyWlLk6GJQsqaUBKTNV-1" vertex="1">
          <mxGeometry x="1270" y="1170" width="430" height="60" as="geometry" />
        </mxCell>
        <mxCell id="1VNbHM8MTjkIttizysfg-86" value="" style="shape=partialRectangle;collapsible=0;dropTarget=0;pointerEvents=0;fillColor=none;top=0;left=0;bottom=1;right=0;points=[[0,0.5],[1,0.5]];portConstraint=eastwest;" parent="1VNbHM8MTjkIttizysfg-85" vertex="1">
          <mxGeometry y="30" width="430" height="30" as="geometry" />
        </mxCell>
        <mxCell id="1VNbHM8MTjkIttizysfg-87" value="Airplane_id" style="shape=partialRectangle;connectable=0;fillColor=none;top=0;left=0;bottom=0;right=0;fontStyle=5;overflow=hidden;" parent="1VNbHM8MTjkIttizysfg-86" vertex="1">
          <mxGeometry width="130" height="30" as="geometry" />
        </mxCell>
        <mxCell id="1VNbHM8MTjkIttizysfg-88" value="Total_no_of_seats" style="shape=partialRectangle;connectable=0;fillColor=none;top=0;left=0;bottom=0;right=0;fontStyle=1;overflow=hidden;" parent="1VNbHM8MTjkIttizysfg-86" vertex="1">
          <mxGeometry x="130" width="150" height="30" as="geometry" />
        </mxCell>
        <mxCell id="fP1zDGgaj0fNd_BTwLa7-7" value="Type" style="shape=partialRectangle;connectable=0;fillColor=none;top=0;left=0;bottom=0;right=0;fontStyle=1;overflow=hidden;" parent="1VNbHM8MTjkIttizysfg-86" vertex="1">
          <mxGeometry x="280" width="150" height="30" as="geometry" />
        </mxCell>
        <mxCell id="1VNbHM8MTjkIttizysfg-90" value="Leg_Instance" style="shape=table;startSize=25;container=1;collapsible=1;childLayout=tableLayout;fixedRows=1;rowLines=0;fontStyle=0;align=center;resizeLast=1;" parent="WIyWlLk6GJQsqaUBKTNV-1" vertex="1">
          <mxGeometry x="1270" y="1280" width="1200" height="55" as="geometry" />
        </mxCell>
        <mxCell id="1VNbHM8MTjkIttizysfg-91" value="" style="shape=partialRectangle;collapsible=0;dropTarget=0;pointerEvents=0;fillColor=none;top=0;left=0;bottom=1;right=0;points=[[0,0.5],[1,0.5]];portConstraint=eastwest;" parent="1VNbHM8MTjkIttizysfg-90" vertex="1">
          <mxGeometry y="25" width="1200" height="30" as="geometry" />
        </mxCell>
        <mxCell id="1VNbHM8MTjkIttizysfg-96" value="No_of_avail_seats" style="shape=partialRectangle;connectable=0;fillColor=none;top=0;left=0;bottom=0;right=0;fontStyle=1;overflow=hidden;" parent="1VNbHM8MTjkIttizysfg-91" vertex="1">
          <mxGeometry width="110" height="30" as="geometry" />
        </mxCell>
        <mxCell id="1VNbHM8MTjkIttizysfg-92" value="Date" style="shape=partialRectangle;connectable=0;fillColor=none;top=0;left=0;bottom=0;right=0;fontStyle=5;overflow=hidden;" parent="1VNbHM8MTjkIttizysfg-91" vertex="1">
          <mxGeometry x="110" width="110" height="30" as="geometry" />
        </mxCell>
        <mxCell id="1VNbHM8MTjkIttizysfg-93" value="Flight_Legs" style="shape=partialRectangle;connectable=0;fillColor=none;top=0;left=0;bottom=0;right=0;fontStyle=5;overflow=hidden;" parent="1VNbHM8MTjkIttizysfg-91" vertex="1">
          <mxGeometry x="220" width="90" height="30" as="geometry" />
        </mxCell>
        <mxCell id="1VNbHM8MTjkIttizysfg-94" value="Flight_legs_no" style="shape=partialRectangle;connectable=0;fillColor=none;top=0;left=0;bottom=0;right=0;fontStyle=5;overflow=hidden;" parent="1VNbHM8MTjkIttizysfg-91" vertex="1">
          <mxGeometry x="310" width="100" height="30" as="geometry" />
        </mxCell>
        <mxCell id="1VNbHM8MTjkIttizysfg-98" value="Assigned_airplane" style="shape=partialRectangle;connectable=0;fillColor=none;top=0;left=0;bottom=0;right=0;fontStyle=1;overflow=hidden;" parent="1VNbHM8MTjkIttizysfg-91" vertex="1">
          <mxGeometry x="410" width="129.99999999999977" height="30" as="geometry" />
        </mxCell>
        <mxCell id="1VNbHM8MTjkIttizysfg-99" value="Dep_airport_code" style="shape=partialRectangle;connectable=0;fillColor=none;top=0;left=0;bottom=0;right=0;fontStyle=1;overflow=hidden;" parent="1VNbHM8MTjkIttizysfg-91" vertex="1">
          <mxGeometry x="539.9999999999998" width="120.00000000000023" height="30" as="geometry" />
        </mxCell>
        <mxCell id="1VNbHM8MTjkIttizysfg-100" value="Dep_time" style="shape=partialRectangle;connectable=0;fillColor=none;top=0;left=0;bottom=0;right=0;fontStyle=1;overflow=hidden;" parent="1VNbHM8MTjkIttizysfg-91" vertex="1">
          <mxGeometry x="660" width="130" height="30" as="geometry" />
        </mxCell>
        <mxCell id="1VNbHM8MTjkIttizysfg-95" value="Arr_airport_code" style="shape=partialRectangle;connectable=0;fillColor=none;top=0;left=0;bottom=0;right=0;fontStyle=1;overflow=hidden;" parent="1VNbHM8MTjkIttizysfg-91" vertex="1">
          <mxGeometry x="790" width="180" height="30" as="geometry" />
        </mxCell>
        <mxCell id="1VNbHM8MTjkIttizysfg-97" value="Arr_time" style="shape=partialRectangle;connectable=0;fillColor=none;top=0;left=0;bottom=0;right=0;fontStyle=1;overflow=hidden;" parent="1VNbHM8MTjkIttizysfg-91" vertex="1">
          <mxGeometry x="970" width="130" height="30" as="geometry" />
        </mxCell>
        <mxCell id="fP1zDGgaj0fNd_BTwLa7-9" value="Airplane_id" style="shape=partialRectangle;connectable=0;fillColor=none;top=0;left=0;bottom=0;right=0;fontStyle=1;overflow=hidden;" parent="1VNbHM8MTjkIttizysfg-91" vertex="1">
          <mxGeometry x="1100" width="100" height="30" as="geometry" />
        </mxCell>
        <mxCell id="1VNbHM8MTjkIttizysfg-101" value="Seat" style="shape=table;startSize=30;container=1;collapsible=1;childLayout=tableLayout;fixedRows=1;rowLines=0;fontStyle=0;align=center;resizeLast=1;" parent="WIyWlLk6GJQsqaUBKTNV-1" vertex="1">
          <mxGeometry x="1280" y="1420" width="600" height="60" as="geometry" />
        </mxCell>
        <mxCell id="1VNbHM8MTjkIttizysfg-102" value="" style="shape=partialRectangle;collapsible=0;dropTarget=0;pointerEvents=0;fillColor=none;top=0;left=0;bottom=1;right=0;points=[[0,0.5],[1,0.5]];portConstraint=eastwest;" parent="1VNbHM8MTjkIttizysfg-101" vertex="1">
          <mxGeometry y="30" width="600" height="30" as="geometry" />
        </mxCell>
        <mxCell id="1VNbHM8MTjkIttizysfg-103" value="Flight_Legs" style="shape=partialRectangle;connectable=0;fillColor=none;top=0;left=0;bottom=0;right=0;fontStyle=5;overflow=hidden;" parent="1VNbHM8MTjkIttizysfg-102" vertex="1">
          <mxGeometry width="100" height="30" as="geometry" />
        </mxCell>
        <mxCell id="1VNbHM8MTjkIttizysfg-104" value="Leg_date" style="shape=partialRectangle;connectable=0;fillColor=none;top=0;left=0;bottom=0;right=0;fontStyle=5;overflow=hidden;" parent="1VNbHM8MTjkIttizysfg-102" vertex="1">
          <mxGeometry x="100" width="100" height="30" as="geometry" />
        </mxCell>
        <mxCell id="1VNbHM8MTjkIttizysfg-105" value="Flight_legs_no" style="shape=partialRectangle;connectable=0;fillColor=none;top=0;left=0;bottom=0;right=0;fontStyle=5;overflow=hidden;" parent="1VNbHM8MTjkIttizysfg-102" vertex="1">
          <mxGeometry x="200" width="100" height="30" as="geometry" />
        </mxCell>
        <mxCell id="1VNbHM8MTjkIttizysfg-106" value="Seat_no" style="shape=partialRectangle;connectable=0;fillColor=none;top=0;left=0;bottom=0;right=0;fontStyle=5;overflow=hidden;" parent="1VNbHM8MTjkIttizysfg-102" vertex="1">
          <mxGeometry x="300" width="100" height="30" as="geometry" />
        </mxCell>
        <mxCell id="1VNbHM8MTjkIttizysfg-107" value="Costumer_name" style="shape=partialRectangle;connectable=0;fillColor=none;top=0;left=0;bottom=0;right=0;fontStyle=1;overflow=hidden;" parent="1VNbHM8MTjkIttizysfg-102" vertex="1">
          <mxGeometry x="400" width="100" height="30" as="geometry" />
        </mxCell>
        <mxCell id="1VNbHM8MTjkIttizysfg-108" value="Cphone" style="shape=partialRectangle;connectable=0;fillColor=none;top=0;left=0;bottom=0;right=0;fontStyle=1;overflow=hidden;" parent="1VNbHM8MTjkIttizysfg-102" vertex="1">
          <mxGeometry x="500" width="100" height="30" as="geometry" />
        </mxCell>
        <mxCell id="1VNbHM8MTjkIttizysfg-109" value="Flight" style="shape=table;startSize=30;container=1;collapsible=1;childLayout=tableLayout;fixedRows=1;rowLines=0;fontStyle=0;align=center;resizeLast=1;" parent="WIyWlLk6GJQsqaUBKTNV-1" vertex="1">
          <mxGeometry x="1280" y="1570" width="300" height="60" as="geometry" />
        </mxCell>
        <mxCell id="1VNbHM8MTjkIttizysfg-110" value="" style="shape=partialRectangle;collapsible=0;dropTarget=0;pointerEvents=0;fillColor=none;top=0;left=0;bottom=1;right=0;points=[[0,0.5],[1,0.5]];portConstraint=eastwest;" parent="1VNbHM8MTjkIttizysfg-109" vertex="1">
          <mxGeometry y="30" width="300" height="30" as="geometry" />
        </mxCell>
        <mxCell id="1VNbHM8MTjkIttizysfg-111" value="Number" style="shape=partialRectangle;connectable=0;fillColor=none;top=0;left=0;bottom=0;right=0;fontStyle=5;overflow=hidden;" parent="1VNbHM8MTjkIttizysfg-110" vertex="1">
          <mxGeometry width="100" height="30" as="geometry" />
        </mxCell>
        <mxCell id="1VNbHM8MTjkIttizysfg-112" value="Airline" style="shape=partialRectangle;connectable=0;fillColor=none;top=0;left=0;bottom=0;right=0;fontStyle=1;overflow=hidden;" parent="1VNbHM8MTjkIttizysfg-110" vertex="1">
          <mxGeometry x="100" width="80" height="30" as="geometry" />
        </mxCell>
        <mxCell id="1VNbHM8MTjkIttizysfg-113" value="Weekdays" style="shape=partialRectangle;connectable=0;fillColor=none;top=0;left=0;bottom=0;right=0;fontStyle=1;overflow=hidden;" parent="1VNbHM8MTjkIttizysfg-110" vertex="1">
          <mxGeometry x="180" width="120" height="30" as="geometry" />
        </mxCell>
        <mxCell id="1VNbHM8MTjkIttizysfg-115" value="Flight_Leg" style="shape=table;startSize=30;container=1;collapsible=1;childLayout=tableLayout;fixedRows=1;rowLines=0;fontStyle=0;align=center;resizeLast=1;" parent="WIyWlLk6GJQsqaUBKTNV-1" vertex="1">
          <mxGeometry x="1280" y="1700" width="920" height="70" as="geometry" />
        </mxCell>
        <mxCell id="1VNbHM8MTjkIttizysfg-116" value="" style="shape=partialRectangle;collapsible=0;dropTarget=0;pointerEvents=0;fillColor=none;top=0;left=0;bottom=1;right=0;points=[[0,0.5],[1,0.5]];portConstraint=eastwest;" parent="1VNbHM8MTjkIttizysfg-115" vertex="1">
          <mxGeometry y="30" width="920" height="40" as="geometry" />
        </mxCell>
        <mxCell id="1VNbHM8MTjkIttizysfg-117" value="Flight_Number" style="shape=partialRectangle;connectable=0;fillColor=none;top=0;left=0;bottom=0;right=0;fontStyle=5;overflow=hidden;" parent="1VNbHM8MTjkIttizysfg-116" vertex="1">
          <mxGeometry width="100" height="40" as="geometry" />
        </mxCell>
        <mxCell id="1VNbHM8MTjkIttizysfg-118" value="Arr_airport_code" style="shape=partialRectangle;connectable=0;fillColor=none;top=0;left=0;bottom=0;right=0;fontStyle=1;overflow=hidden;" parent="1VNbHM8MTjkIttizysfg-116" vertex="1">
          <mxGeometry x="100" width="100" height="40" as="geometry" />
        </mxCell>
        <mxCell id="1VNbHM8MTjkIttizysfg-119" value="Dep_airport_code" style="shape=partialRectangle;connectable=0;fillColor=none;top=0;left=0;bottom=0;right=0;fontStyle=1;overflow=hidden;" parent="1VNbHM8MTjkIttizysfg-116" vertex="1">
          <mxGeometry x="200" width="100" height="40" as="geometry" />
        </mxCell>
        <mxCell id="1VNbHM8MTjkIttizysfg-120" value="Schedule_dep_time" style="shape=partialRectangle;connectable=0;fillColor=none;top=0;left=0;bottom=0;right=0;fontStyle=1;overflow=hidden;" parent="1VNbHM8MTjkIttizysfg-116" vertex="1">
          <mxGeometry x="300" width="139.99999999999977" height="40" as="geometry" />
        </mxCell>
        <mxCell id="1VNbHM8MTjkIttizysfg-122" value="Arr_airport" style="shape=partialRectangle;connectable=0;fillColor=none;top=0;left=0;bottom=0;right=0;fontStyle=1;overflow=hidden;" parent="1VNbHM8MTjkIttizysfg-116" vertex="1">
          <mxGeometry x="439.9999999999998" width="139.99999999999977" height="40" as="geometry" />
        </mxCell>
        <mxCell id="1VNbHM8MTjkIttizysfg-121" value="Leg_no" style="shape=partialRectangle;connectable=0;fillColor=none;top=0;left=0;bottom=0;right=0;fontStyle=5;overflow=hidden;" parent="1VNbHM8MTjkIttizysfg-116" vertex="1">
          <mxGeometry x="579.9999999999995" width="170.00000000000023" height="40" as="geometry" />
        </mxCell>
        <mxCell id="fP1zDGgaj0fNd_BTwLa7-20" value="Schedule_arr_time" style="shape=partialRectangle;connectable=0;fillColor=none;top=0;left=0;bottom=0;right=0;fontStyle=1;overflow=hidden;" parent="1VNbHM8MTjkIttizysfg-116" vertex="1">
          <mxGeometry x="749.9999999999998" width="170.00000000000023" height="40" as="geometry" />
        </mxCell>
        <mxCell id="1VNbHM8MTjkIttizysfg-123" value="Fare" style="shape=table;startSize=30;container=1;collapsible=1;childLayout=tableLayout;fixedRows=1;rowLines=0;fontStyle=0;align=center;resizeLast=1;" parent="WIyWlLk6GJQsqaUBKTNV-1" vertex="1">
          <mxGeometry x="1280" y="1810" width="480" height="60" as="geometry" />
        </mxCell>
        <mxCell id="1VNbHM8MTjkIttizysfg-124" value="" style="shape=partialRectangle;collapsible=0;dropTarget=0;pointerEvents=0;fillColor=none;top=0;left=0;bottom=1;right=0;points=[[0,0.5],[1,0.5]];portConstraint=eastwest;" parent="1VNbHM8MTjkIttizysfg-123" vertex="1">
          <mxGeometry y="30" width="480" height="30" as="geometry" />
        </mxCell>
        <mxCell id="1VNbHM8MTjkIttizysfg-125" value="Flight_Fare_number" style="shape=partialRectangle;connectable=0;fillColor=none;top=0;left=0;bottom=0;right=0;fontStyle=5;overflow=hidden;" parent="1VNbHM8MTjkIttizysfg-124" vertex="1">
          <mxGeometry width="140" height="30" as="geometry" />
        </mxCell>
        <mxCell id="1VNbHM8MTjkIttizysfg-126" value="Restrictions" style="shape=partialRectangle;connectable=0;fillColor=none;top=0;left=0;bottom=0;right=0;fontStyle=1;overflow=hidden;" parent="1VNbHM8MTjkIttizysfg-124" vertex="1">
          <mxGeometry x="140" width="120" height="30" as="geometry" />
        </mxCell>
        <mxCell id="1VNbHM8MTjkIttizysfg-127" value="Amount" style="shape=partialRectangle;connectable=0;fillColor=none;top=0;left=0;bottom=0;right=0;fontStyle=1;overflow=hidden;" parent="1VNbHM8MTjkIttizysfg-124" vertex="1">
          <mxGeometry x="260" width="100" height="30" as="geometry" />
        </mxCell>
        <mxCell id="1VNbHM8MTjkIttizysfg-128" value="Code" style="shape=partialRectangle;connectable=0;fillColor=none;top=0;left=0;bottom=0;right=0;fontStyle=5;overflow=hidden;" parent="1VNbHM8MTjkIttizysfg-124" vertex="1">
          <mxGeometry x="360" width="120" height="30" as="geometry" />
        </mxCell>
        <mxCell id="1VNbHM8MTjkIttizysfg-129" value="" style="curved=1;endArrow=classic;html=1;" parent="WIyWlLk6GJQsqaUBKTNV-1" edge="1">
          <mxGeometry width="50" height="50" relative="1" as="geometry">
            <mxPoint x="1317" y="996" as="sourcePoint" />
            <mxPoint x="1317" y="910" as="targetPoint" />
            <Array as="points">
              <mxPoint x="1317" y="930" />
            </Array>
          </mxGeometry>
        </mxCell>
        <mxCell id="1VNbHM8MTjkIttizysfg-131" value="" style="endArrow=classic;html=1;" parent="WIyWlLk6GJQsqaUBKTNV-1" edge="1">
          <mxGeometry width="50" height="50" relative="1" as="geometry">
            <mxPoint x="1431" y="1450" as="sourcePoint" />
            <mxPoint x="1431" y="1331" as="targetPoint" />
          </mxGeometry>
        </mxCell>
        <mxCell id="1VNbHM8MTjkIttizysfg-133" value="" style="edgeStyle=segmentEdgeStyle;endArrow=classic;html=1;" parent="WIyWlLk6GJQsqaUBKTNV-1" edge="1">
          <mxGeometry width="50" height="50" relative="1" as="geometry">
            <mxPoint x="1550" y="1340" as="sourcePoint" />
            <mxPoint x="1320" y="1770" as="targetPoint" />
            <Array as="points">
              <mxPoint x="1550" y="1330" />
              <mxPoint x="1550" y="1390" />
              <mxPoint x="2240" y="1390" />
              <mxPoint x="2240" y="1780" />
              <mxPoint x="1320" y="1780" />
            </Array>
          </mxGeometry>
        </mxCell>
        <mxCell id="1VNbHM8MTjkIttizysfg-135" value="" style="edgeStyle=segmentEdgeStyle;endArrow=classic;html=1;exitX=0.306;exitY=0.967;exitDx=0;exitDy=0;exitPerimeter=0;" parent="WIyWlLk6GJQsqaUBKTNV-1" source="1VNbHM8MTjkIttizysfg-91" edge="1">
          <mxGeometry width="50" height="50" relative="1" as="geometry">
            <mxPoint x="1940" y="1360" as="sourcePoint" />
            <mxPoint x="1980" y="1731" as="targetPoint" />
            <Array as="points">
              <mxPoint x="1637" y="1380" />
              <mxPoint x="1980" y="1380" />
            </Array>
          </mxGeometry>
        </mxCell>
        <mxCell id="1VNbHM8MTjkIttizysfg-137" value="" style="endArrow=classic;html=1;exitX=0.051;exitY=0.429;exitDx=0;exitDy=0;exitPerimeter=0;" parent="WIyWlLk6GJQsqaUBKTNV-1" source="1VNbHM8MTjkIttizysfg-115" edge="1">
          <mxGeometry width="50" height="50" relative="1" as="geometry">
            <mxPoint x="1610" y="1550" as="sourcePoint" />
            <mxPoint x="1330" y="1631" as="targetPoint" />
          </mxGeometry>
        </mxCell>
        <mxCell id="fP1zDGgaj0fNd_BTwLa7-0" value="&lt;span style=&quot;font-size: 32px&quot;&gt;Exercício 3.2&lt;/span&gt;" style="text;html=1;strokeColor=none;fillColor=none;align=center;verticalAlign=middle;whiteSpace=wrap;rounded=0;" parent="WIyWlLk6GJQsqaUBKTNV-1" vertex="1">
          <mxGeometry x="890" y="800" width="300" height="50" as="geometry" />
        </mxCell>
        <mxCell id="fP1zDGgaj0fNd_BTwLa7-1" value="&lt;font style=&quot;font-size: 20px&quot;&gt;P4G7&lt;br&gt;- Álvaro Freixo 93116&lt;br&gt;- João Machado 89132&lt;br&gt;&lt;/font&gt;" style="text;html=1;strokeColor=none;fillColor=none;align=center;verticalAlign=middle;whiteSpace=wrap;rounded=0;" parent="WIyWlLk6GJQsqaUBKTNV-1" vertex="1">
          <mxGeometry x="915" y="850" width="250" height="110" as="geometry" />
        </mxCell>
        <mxCell id="fP1zDGgaj0fNd_BTwLa7-2" value="Airplane_Type" style="shape=table;startSize=30;container=1;collapsible=1;childLayout=tableLayout;fixedRows=1;rowLines=0;fontStyle=0;align=center;resizeLast=1;" parent="WIyWlLk6GJQsqaUBKTNV-1" vertex="1">
          <mxGeometry x="1270" y="1070" width="300" height="60" as="geometry" />
        </mxCell>
        <mxCell id="fP1zDGgaj0fNd_BTwLa7-3" value="" style="shape=partialRectangle;collapsible=0;dropTarget=0;pointerEvents=0;fillColor=none;top=0;left=0;bottom=1;right=0;points=[[0,0.5],[1,0.5]];portConstraint=eastwest;" parent="fP1zDGgaj0fNd_BTwLa7-2" vertex="1">
          <mxGeometry y="30" width="300" height="30" as="geometry" />
        </mxCell>
        <mxCell id="fP1zDGgaj0fNd_BTwLa7-4" value="Type_Name" style="shape=partialRectangle;connectable=0;fillColor=none;top=0;left=0;bottom=0;right=0;fontStyle=5;overflow=hidden;" parent="fP1zDGgaj0fNd_BTwLa7-3" vertex="1">
          <mxGeometry width="100" height="30" as="geometry" />
        </mxCell>
        <mxCell id="fP1zDGgaj0fNd_BTwLa7-5" value="Max_seats" style="shape=partialRectangle;connectable=0;fillColor=none;top=0;left=0;bottom=0;right=0;fontStyle=1;overflow=hidden;" parent="fP1zDGgaj0fNd_BTwLa7-3" vertex="1">
          <mxGeometry x="100" width="100" height="30" as="geometry" />
        </mxCell>
        <mxCell id="fP1zDGgaj0fNd_BTwLa7-6" value="Company" style="shape=partialRectangle;connectable=0;fillColor=none;top=0;left=0;bottom=0;right=0;fontStyle=1;overflow=hidden;" parent="fP1zDGgaj0fNd_BTwLa7-3" vertex="1">
          <mxGeometry x="200" width="100" height="30" as="geometry" />
        </mxCell>
        <mxCell id="1VNbHM8MTjkIttizysfg-130" value="" style="curved=1;endArrow=classic;html=1;entryX=0.143;entryY=-0.033;entryDx=0;entryDy=0;entryPerimeter=0;exitX=0.676;exitY=1.004;exitDx=0;exitDy=0;exitPerimeter=0;" parent="WIyWlLk6GJQsqaUBKTNV-1" source="1VNbHM8MTjkIttizysfg-79" target="fP1zDGgaj0fNd_BTwLa7-3" edge="1">
          <mxGeometry width="50" height="50" relative="1" as="geometry">
            <mxPoint x="1480" y="1030" as="sourcePoint" />
            <mxPoint x="1510" y="980" as="targetPoint" />
            <Array as="points">
              <mxPoint x="1410" y="1040" />
              <mxPoint x="1312" y="1090" />
            </Array>
          </mxGeometry>
        </mxCell>
        <mxCell id="fP1zDGgaj0fNd_BTwLa7-8" value="" style="endArrow=classic;html=1;entryX=0.163;entryY=1.067;entryDx=0;entryDy=0;entryPerimeter=0;exitX=0.849;exitY=0;exitDx=0;exitDy=0;exitPerimeter=0;" parent="WIyWlLk6GJQsqaUBKTNV-1" source="1VNbHM8MTjkIttizysfg-86" target="fP1zDGgaj0fNd_BTwLa7-3" edge="1">
          <mxGeometry width="50" height="50" relative="1" as="geometry">
            <mxPoint x="1660" y="1150" as="sourcePoint" />
            <mxPoint x="1710" y="1100" as="targetPoint" />
            <Array as="points">
              <mxPoint x="1635" y="1160" />
              <mxPoint x="1319" y="1160" />
            </Array>
          </mxGeometry>
        </mxCell>
        <mxCell id="fP1zDGgaj0fNd_BTwLa7-10" value="" style="endArrow=classic;html=1;entryX=0.142;entryY=1.067;entryDx=0;entryDy=0;entryPerimeter=0;exitX=0.968;exitY=0.473;exitDx=0;exitDy=0;exitPerimeter=0;" parent="WIyWlLk6GJQsqaUBKTNV-1" source="1VNbHM8MTjkIttizysfg-90" target="1VNbHM8MTjkIttizysfg-86" edge="1">
          <mxGeometry width="50" height="50" relative="1" as="geometry">
            <mxPoint x="2450" y="1240" as="sourcePoint" />
            <mxPoint x="1330" y="1240" as="targetPoint" />
            <Array as="points">
              <mxPoint x="2430" y="1240" />
              <mxPoint x="1331" y="1240" />
            </Array>
          </mxGeometry>
        </mxCell>
        <mxCell id="fP1zDGgaj0fNd_BTwLa7-11" value="" style="endArrow=classic;html=1;exitX=0.4;exitY=0.45;exitDx=0;exitDy=0;exitPerimeter=0;entryX=0.278;entryY=1;entryDx=0;entryDy=0;entryPerimeter=0;" parent="WIyWlLk6GJQsqaUBKTNV-1" source="1VNbHM8MTjkIttizysfg-101" target="1VNbHM8MTjkIttizysfg-91" edge="1">
          <mxGeometry width="50" height="50" relative="1" as="geometry">
            <mxPoint x="1550" y="1410" as="sourcePoint" />
            <mxPoint x="1600" y="1360" as="targetPoint" />
            <Array as="points">
              <mxPoint x="1520" y="1400" />
            </Array>
          </mxGeometry>
        </mxCell>
        <mxCell id="fP1zDGgaj0fNd_BTwLa7-12" value="" style="endArrow=classic;html=1;entryX=0.204;entryY=1;entryDx=0;entryDy=0;entryPerimeter=0;exitX=0.085;exitY=0.467;exitDx=0;exitDy=0;exitPerimeter=0;" parent="WIyWlLk6GJQsqaUBKTNV-1" source="1VNbHM8MTjkIttizysfg-101" target="1VNbHM8MTjkIttizysfg-91" edge="1">
          <mxGeometry width="50" height="50" relative="1" as="geometry">
            <mxPoint x="1470" y="1400" as="sourcePoint" />
            <mxPoint x="1520" y="1350" as="targetPoint" />
            <Array as="points">
              <mxPoint x="1331" y="1400" />
            </Array>
          </mxGeometry>
        </mxCell>
        <mxCell id="fP1zDGgaj0fNd_BTwLa7-15" value="" style="endArrow=classic;html=1;exitX=0.463;exitY=-0.033;exitDx=0;exitDy=0;exitPerimeter=0;entryX=0.163;entryY=1.2;entryDx=0;entryDy=0;entryPerimeter=0;" parent="WIyWlLk6GJQsqaUBKTNV-1" source="1VNbHM8MTjkIttizysfg-91" target="1VNbHM8MTjkIttizysfg-73" edge="1">
          <mxGeometry width="50" height="50" relative="1" as="geometry">
            <mxPoint x="2370" y="1220" as="sourcePoint" />
            <mxPoint x="2420" y="1170" as="targetPoint" />
            <Array as="points">
              <mxPoint x="1826" y="1270" />
              <mxPoint x="1826" y="950" />
              <mxPoint x="1380" y="950" />
            </Array>
          </mxGeometry>
        </mxCell>
        <mxCell id="fP1zDGgaj0fNd_BTwLa7-16" value="" style="endArrow=classic;html=1;exitX=0.707;exitY=0.067;exitDx=0;exitDy=0;exitPerimeter=0;entryX=0.22;entryY=1.1;entryDx=0;entryDy=0;entryPerimeter=0;" parent="WIyWlLk6GJQsqaUBKTNV-1" source="1VNbHM8MTjkIttizysfg-91" target="1VNbHM8MTjkIttizysfg-73" edge="1">
          <mxGeometry width="50" height="50" relative="1" as="geometry">
            <mxPoint x="2120" y="1220" as="sourcePoint" />
            <mxPoint x="2118" y="920" as="targetPoint" />
            <Array as="points">
              <mxPoint x="2118" y="930" />
              <mxPoint x="1370" y="930" />
            </Array>
          </mxGeometry>
        </mxCell>
        <mxCell id="fP1zDGgaj0fNd_BTwLa7-17" value="" style="endArrow=classic;html=1;exitX=0.27;exitY=0.05;exitDx=0;exitDy=0;exitPerimeter=0;entryX=-0.005;entryY=0.833;entryDx=0;entryDy=0;entryPerimeter=0;" parent="WIyWlLk6GJQsqaUBKTNV-1" source="1VNbHM8MTjkIttizysfg-116" target="1VNbHM8MTjkIttizysfg-73" edge="1">
          <mxGeometry width="50" height="50" relative="1" as="geometry">
            <mxPoint x="1710" y="1630" as="sourcePoint" />
            <mxPoint x="1220" y="910" as="targetPoint" />
            <Array as="points">
              <mxPoint x="1528" y="1670" />
              <mxPoint x="1220" y="1670" />
              <mxPoint x="1220" y="905" />
            </Array>
          </mxGeometry>
        </mxCell>
        <mxCell id="fP1zDGgaj0fNd_BTwLa7-19" value="" style="endArrow=classic;html=1;exitX=0.165;exitY=-0.05;exitDx=0;exitDy=0;exitPerimeter=0;entryX=0.055;entryY=1.033;entryDx=0;entryDy=0;entryPerimeter=0;" parent="WIyWlLk6GJQsqaUBKTNV-1" source="1VNbHM8MTjkIttizysfg-116" target="1VNbHM8MTjkIttizysfg-73" edge="1">
          <mxGeometry width="50" height="50" relative="1" as="geometry">
            <mxPoint x="1400" y="1730" as="sourcePoint" />
            <mxPoint x="1260" y="940" as="targetPoint" />
            <Array as="points">
              <mxPoint x="1430" y="1680" />
              <mxPoint x="1260" y="1680" />
              <mxPoint x="1260" y="940" />
            </Array>
          </mxGeometry>
        </mxCell>
        <mxCell id="fP1zDGgaj0fNd_BTwLa7-21" value="" style="endArrow=classic;html=1;exitX=0;exitY=0.5;exitDx=0;exitDy=0;entryX=0.04;entryY=1.033;entryDx=0;entryDy=0;entryPerimeter=0;" parent="WIyWlLk6GJQsqaUBKTNV-1" source="1VNbHM8MTjkIttizysfg-124" target="1VNbHM8MTjkIttizysfg-110" edge="1">
          <mxGeometry width="50" height="50" relative="1" as="geometry">
            <mxPoint x="1220" y="1840" as="sourcePoint" />
            <mxPoint x="1270" y="1790" as="targetPoint" />
            <Array as="points">
              <mxPoint x="1260" y="1855" />
              <mxPoint x="1260" y="1740" />
            </Array>
          </mxGeometry>
        </mxCell>
        <mxCell id="fP1zDGgaj0fNd_BTwLa7-22" value="&lt;b&gt;&lt;font style=&quot;font-size: 22px&quot;&gt;Chaves&lt;/font&gt;&lt;/b&gt;" style="text;html=1;strokeColor=none;fillColor=none;align=center;verticalAlign=middle;whiteSpace=wrap;rounded=0;" parent="WIyWlLk6GJQsqaUBKTNV-1" vertex="1">
          <mxGeometry x="1310" y="2530" width="40" height="20" as="geometry" />
        </mxCell>
      </root>
    </mxGraphModel>
  </diagram>
</mxfile>
